REM DIRINDEX 1\2\6,1\2\7,1\2\8,1\2\9,1\3\10,1\3\11,1\4\12,1\4\13,1\4\14,1\5\15,1\5\16,1\5\17
REM DIRNAME cjc020,folder01,folder02,folder03,folder04,folder05,folder06,folder07,folder08,folder09,folder10,folder11,folder12,folder13,folder14,folder15,folder16
TITLE ""
FILE "1900_2_sec02_0101_0115.mp3" MP3
  TRACK 01 AUDIO
    TITLE "0:"
    INDEX 01 00:00:00
  TRACK 02 AUDIO
    TITLE "12:cjc020_2288"
    INDEX 01 00:03:23
  TRACK 03 AUDIO
    TITLE "0:"
    INDEX 01 00:04:70
  TRACK 04 AUDIO
    TITLE "12:cjc020_2289"
    INDEX 01 00:05:36
  TRACK 05 AUDIO
    TITLE "0:"
    INDEX 01 00:06:59
  TRACK 06 AUDIO
    TITLE "13:cjc020_2290"
    INDEX 01 00:07:58
  TRACK 07 AUDIO
    TITLE "0:"
    INDEX 01 00:09:12
  TRACK 08 AUDIO
    TITLE "14:cjc020_2291"
    INDEX 01 00:09:14
  TRACK 09 AUDIO
    TITLE "0:"
    INDEX 01 00:11:46
  TRACK 10 AUDIO
    TITLE "13:cjc020_2292"
    INDEX 01 00:12:24
  TRACK 11 AUDIO
    TITLE "0:"
    INDEX 01 00:13:47
  TRACK 12 AUDIO
    TITLE "14:cjc020_2293"
    INDEX 01 00:13:51
  TRACK 13 AUDIO
    TITLE "0:"
    INDEX 01 00:16:34
  TRACK 14 AUDIO
    TITLE "13:cjc020_2294"
    INDEX 01 00:17:16
  TRACK 15 AUDIO
    TITLE "0:"
    INDEX 01 00:18:31
  TRACK 16 AUDIO
    TITLE "14:cjc020_2295"
    INDEX 01 00:18:33
  TRACK 17 AUDIO
    TITLE "0:"
    INDEX 01 00:21:25
  TRACK 18 AUDIO
    TITLE "13:cjc020_2296"
    INDEX 01 00:22:05
  TRACK 19 AUDIO
    TITLE "0:"
    INDEX 01 00:23:36
  TRACK 20 AUDIO
    TITLE "14:cjc020_2297"
    INDEX 01 00:23:44
  TRACK 21 AUDIO
    TITLE "0:"
    INDEX 01 00:25:68
  TRACK 22 AUDIO
    TITLE "13:cjc020_2298"
    INDEX 01 00:26:48
  TRACK 23 AUDIO
    TITLE "0:"
    INDEX 01 00:27:63
  TRACK 24 AUDIO
    TITLE "14:cjc020_2299"
    INDEX 01 00:27:67
  TRACK 25 AUDIO
    TITLE "0:"
    INDEX 01 00:32:09
  TRACK 26 AUDIO
    TITLE "13:cjc020_2300"
    INDEX 01 00:32:64
  TRACK 27 AUDIO
    TITLE "0:"
    INDEX 01 00:34:06
  TRACK 28 AUDIO
    TITLE "14:cjc020_2301"
    INDEX 01 00:34:10
  TRACK 29 AUDIO
    TITLE "0:"
    INDEX 01 00:36:25
  TRACK 30 AUDIO
    TITLE "13:cjc020_2302"
    INDEX 01 00:37:08
  TRACK 31 AUDIO
    TITLE "0:"
    INDEX 01 00:38:33
  TRACK 32 AUDIO
    TITLE "14:cjc020_2303"
    INDEX 01 00:38:39
  TRACK 33 AUDIO
    TITLE "0:"
    INDEX 01 00:42:00
  TRACK 34 AUDIO
    TITLE "13:cjc020_2304"
    INDEX 01 00:42:55
  TRACK 35 AUDIO
    TITLE "0:"
    INDEX 01 00:44:12
  TRACK 36 AUDIO
    TITLE "14:cjc020_2305"
    INDEX 01 00:44:16
  TRACK 37 AUDIO
    TITLE "0:"
    INDEX 01 00:45:45
  TRACK 38 AUDIO
    TITLE "13:cjc020_2306"
    INDEX 01 00:46:25
  TRACK 39 AUDIO
    TITLE "0:"
    INDEX 01 00:47:36
  TRACK 40 AUDIO
    TITLE "14:cjc020_2307"
    INDEX 01 00:47:42
  TRACK 41 AUDIO
    TITLE "0:"
    INDEX 01 00:49:59
  TRACK 42 AUDIO
    TITLE "13:cjc020_2308"
    INDEX 01 00:50:41
  TRACK 43 AUDIO
    TITLE "0:"
    INDEX 01 00:51:54
  TRACK 44 AUDIO
    TITLE "14:cjc020_2309"
    INDEX 01 00:51:58
  TRACK 45 AUDIO
    TITLE "0:"
    INDEX 01 00:55:26
  TRACK 46 AUDIO
    TITLE "13:cjc020_2310"
    INDEX 01 00:56:06
  TRACK 47 AUDIO
    TITLE "0:"
    INDEX 01 00:57:21
  TRACK 48 AUDIO
    TITLE "14:cjc020_2311"
    INDEX 01 00:57:25
  TRACK 49 AUDIO
    TITLE "0:"
    INDEX 01 01:00:72
  TRACK 50 AUDIO
    TITLE "13:cjc020_2312"
    INDEX 01 01:01:52
  TRACK 51 AUDIO
    TITLE "0:"
    INDEX 01 01:03:10
  TRACK 52 AUDIO
    TITLE "14:cjc020_2313"
    INDEX 01 01:03:16
  TRACK 53 AUDIO
    TITLE "0:"
    INDEX 01 01:05:56
  TRACK 54 AUDIO
    TITLE "13:cjc020_2314"
    INDEX 01 01:06:38
  TRACK 55 AUDIO
    TITLE "0:"
    INDEX 01 01:07:53
  TRACK 56 AUDIO
    TITLE "14:cjc020_2315"
    INDEX 01 01:07:59
  TRACK 57 AUDIO
    TITLE "0:"
    INDEX 01 01:09:67
  TRACK 58 AUDIO
    TITLE "13:cjc020_2316"
    INDEX 01 01:10:47
  TRACK 59 AUDIO
    TITLE "0:"
    INDEX 01 01:11:60
  TRACK 60 AUDIO
    TITLE "14:cjc020_2317"
    INDEX 01 01:11:62
  TRACK 61 AUDIO
    TITLE "0:"
    INDEX 01 01:15:01
  TRACK 62 AUDIO
    TITLE "13:cjc020_2318"
    INDEX 01 01:15:52
  TRACK 63 AUDIO
    TITLE "0:"
    INDEX 01 01:16:54
  TRACK 64 AUDIO
    TITLE "14:cjc020_2319"
    INDEX 01 01:16:58
  TRACK 65 AUDIO
    TITLE "0:"
    INDEX 01 01:19:05
